<svg id="Layer_1" enable-background="new 0 0 512 512" height="512" viewBox="0 0 512 512" width="512" xmlns="http://www.w3.org/2000/svg"><g><path d="m303.55 134.768c1.389-3.884 5.698-5.895 9.582-4.479 3.883 1.39 5.868 5.699 4.479 9.582l-25.4 69.766h49.922l2.892-7.938-14.373-5.244c-3.883-1.39-5.896-5.699-4.479-9.583 1.389-3.883 5.698-5.867 9.582-4.479l14.344 5.216 5.471-15.138-25.088-9.128c-3.884-1.39-5.897-5.698-4.479-9.582 1.389-3.884 5.698-5.896 9.581-4.479l25.089 9.128 5.471-15.139-14.259-5.187c-3.883-1.39-5.896-5.699-4.478-9.583 1.417-3.883 5.698-5.867 9.581-4.479l14.259 5.188 5.471-15.138-25.003-9.101c-3.884-1.388-5.896-5.697-4.479-9.581 1.417-3.885 5.698-5.869 9.582-4.479l25.004 9.1 5.641-15.591-14.571-5.33c-3.884-1.39-5.868-5.698-4.479-9.581 1.417-3.884 5.698-5.868 9.582-4.479l14.543 5.301 5.67-15.649-43.798-15.931-25.174 69.17c-1.417 3.884-5.698 5.896-9.582 4.479s-5.896-5.698-4.479-9.582l25.712-70.673c1.389-3.799 3.77-6.377 6.804-7.767 3.203-1.503 6.747-1.53 10.319-.227l47.115 17.122c7.313 2.665 10.318 9.752 7.682 17.009-18.256 50.46-36.513 100.92-54.769 151.381 3.26.255 6.208 1.701 8.42 3.883 2.409 2.438 3.912 5.783 3.912 9.47v24.832h48.277c13.409 0 25.627 5.472 34.472 14.316 8.845 8.845 14.316 21.063 14.316 34.5v81.843c0 13.436-5.471 25.626-14.316 34.471s-21.063 14.345-34.472 14.345h-48.277v30.701c0 14.854-6.066 28.348-15.847 38.128-9.78 9.78-23.274 15.847-38.128 15.847h-165.246c-14.854 0-28.349-6.066-38.128-15.847s-15.847-23.273-15.847-38.128v-100.523c0-4.139 3.345-7.482 7.512-7.482 4.139 0 7.484 3.344 7.484 7.482v100.524c0 10.716 4.394 20.468 11.453 27.525 7.087 7.06 16.811 11.454 27.526 11.454h165.243c10.715 0 20.439-4.395 27.526-11.454 7.059-7.058 11.453-16.81 11.453-27.525v-38.214-30.985-102.507-30.984-30.701c-81.077 0-162.125 0-243.201 0v98.907c0 4.139-3.345 7.484-7.484 7.484-4.167 0-7.512-3.346-7.512-7.484v-100.523c0-3.686 1.502-7.031 3.912-9.47 2.665-2.636 6.01-3.911 9.724-3.911-21.856-60.07-43.713-120.113-65.57-180.154-2.098-5.783.879-12.219 6.69-14.315l24.833-9.044c5.84-2.665 13.353.823 15.053 7.03l3.175 8.675c7.342-1.531 14.77-1.36 21.29.822 8.363 2.807 15.139 8.703 18.625 18.228l31.892 87.625c1.389 3.884-.624 8.193-4.507 9.583-3.884 1.416-8.164-.596-9.582-4.48l-31.864-87.624c-1.758-4.791-5.16-7.739-9.298-9.128-3.402-1.134-7.314-1.36-11.368-.766 21.063 57.858 42.097 115.69 63.16 173.549h27.243v-56.018c0-4.139 3.374-7.484 7.513-7.484 4.138 0 7.484 3.346 7.484 7.484v56.017h13.239v-145.994h-13.239v56.016c0 4.14-3.346 7.484-7.484 7.484-4.139 0-7.513-3.345-7.513-7.484v-62.707c0-2.013 1.248-4.337 2.069-5.981l21.148-42.381c2.466-4.934 6.832-8.618 12.502-8.59 5.642.028 10.007 3.686 12.445 8.59l21.148 42.324c.822 1.701 2.098 4.025 2.098 6.038v152.685h14.288zm-69.794 74.869h13.239v-145.994h-13.239zm-107.043 0h20.723l-55.535-152.571-18.285 6.662zm-58.199-159.97 18.256-6.662-7.909-21.743-18.284 6.662zm195.859 344.319c2.92-2.949 7.654-2.949 10.574-.028 2.919 2.892 2.948 7.625.028 10.573-10.546 10.603-21.148 21.148-31.807 31.666-2.778 2.749-6.01 4.11-9.412 4.11s-6.634-1.389-9.412-4.139c-22.736-22.51-45.272-45.245-67.895-67.866-10.177-10.178-15.251-23.559-15.251-36.967 0-13.381 5.075-26.79 15.251-36.966 10.177-10.149 23.586-15.251 36.966-15.251 17.321 0 28.575 6.888 40.34 18.652 11.793-11.765 23.047-18.652 40.368-18.652 13.38 0 26.789 5.102 36.966 15.251 9.837 9.836 15.223 23.075 15.223 36.966 0 13.408-5.075 26.817-15.223 36.967-5.188 5.215-5.698 5.669-12.133 12.133-2.919 2.948-7.654 2.948-10.602.028-2.92-2.892-2.92-7.626-.028-10.573 5.16-5.131 9.837-9.894 12.162-12.19 7.002-7.002 10.858-16.442 10.858-26.364 0-9.553-3.629-19.106-10.858-26.336-7.257-7.257-16.811-10.886-26.364-10.886-9.554 0-19.107 3.629-26.364 10.857-3.912 3.94-7.767 9.128-13.806 9.241-6.208.114-10.206-5.272-14.174-9.241-7.257-7.229-16.811-10.857-26.364-10.857s-19.106 3.629-26.364 10.857c-7.229 7.258-10.857 16.811-10.857 26.364 0 9.582 3.628 19.136 10.857 26.364 22.197 22.282 44.365 44.62 66.732 66.761 10.234-10.12 20.412-20.298 30.589-30.474zm105.994-100.155v87.512h48.277c.766 0 1.474-.311 1.984-.85.51-.511.822-1.22.822-1.984v-81.843c0-.765-.312-1.474-.822-2.013-.51-.51-1.219-.822-1.984-.822zm48.278-30.985h-48.277v15.99h48.277c4.905 0 9.355 1.983 12.587 5.215 3.232 3.231 5.245 7.682 5.245 12.615v81.843c0 4.903-2.013 9.383-5.245 12.586-3.232 3.232-7.682 5.244-12.587 5.244h-48.277v15.988h48.277c9.27 0 17.718-3.825 23.869-9.95 6.124-6.123 9.922-14.571 9.922-23.868v-81.843c0-9.299-3.799-17.746-9.922-23.87-6.152-6.15-14.599-9.95-23.869-9.95zm-192.372-245.695-15.705 31.495h31.41z"/></g></svg>