<svg xmlns="http://www.w3.org/2000/svg" xmlns:xlink="http://www.w3.org/1999/xlink" viewBox="0 0 242.4 291.56"><defs><style>.cls-1{fill:#3342e8;}.cls-10,.cls-11,.cls-12,.cls-13,.cls-14,.cls-2,.cls-3,.cls-4,.cls-5,.cls-6,.cls-7,.cls-8,.cls-9{opacity:0.58;isolation:isolate;}.cls-2{fill:url(#Dégradé_sans_nom);}.cls-3{fill:url(#Dégradé_sans_nom_2);}.cls-4{fill:url(#Dégradé_sans_nom_3);}.cls-5{fill:url(#Dégradé_sans_nom_4);}.cls-6{fill:url(#Dégradé_sans_nom_5);}.cls-7{fill:url(#Dégradé_sans_nom_6);}.cls-8{fill:url(#Dégradé_sans_nom_7);}.cls-9{fill:url(#Dégradé_sans_nom_8);}.cls-10{fill:url(#Dégradé_sans_nom_9);}.cls-11{fill:url(#Dégradé_sans_nom_10);}.cls-12{fill:url(#Dégradé_sans_nom_11);}.cls-13{fill:url(#Dégradé_sans_nom_12);}.cls-14{fill:url(#Dégradé_sans_nom_13);}</style><radialGradient id="Dégradé_sans_nom" cx="-375.93" cy="606.72" r="22.16" gradientTransform="matrix(4.2, 0, 0, -4.2, 1723.97, 2813.97)" gradientUnits="userSpaceOnUse"><stop offset="0.5" stop-opacity="0"/><stop offset="0.73"/></radialGradient><linearGradient id="Dégradé_sans_nom_2" x1="-413.88" y1="653.69" x2="-380.45" y2="653.69" gradientTransform="matrix(4.2, 0, 0, -4.2, 1723.97, 2813.97)" gradientUnits="userSpaceOnUse"><stop offset="0.04"/><stop offset="0.11" stop-opacity="0.68"/><stop offset="0.25" stop-opacity="0"/><stop offset="0.62" stop-opacity="0"/><stop offset="0.9"/></linearGradient><linearGradient id="Dégradé_sans_nom_3" x1="-395.02" y1="672.29" x2="-396.96" y2="648.03" gradientTransform="matrix(4.2, 0, 0, -4.2, 1723.97, 2813.97)" gradientUnits="userSpaceOnUse"><stop offset="0.24"/><stop offset="0.31" stop-opacity="0.72"/><stop offset="0.46" stop-opacity="0.1"/><stop offset="0.52" stop-opacity="0.1"/><stop offset="0.71"/></linearGradient><linearGradient id="Dégradé_sans_nom_4" x1="-386.94" y1="660.31" x2="-401.94" y2="614.15" gradientTransform="matrix(4.2, 0, 0, -4.2, 1723.97, 2813.97)" gradientUnits="userSpaceOnUse"><stop offset="0.17"/><stop offset="0.25" stop-opacity="0.68"/><stop offset="0.43" stop-opacity="0"/><stop offset="0.73" stop-opacity="0"/><stop offset="0.97"/></linearGradient><linearGradient id="Dégradé_sans_nom_5" x1="-350.15" y1="607.88" x2="-423.85" y2="623.21" gradientTransform="matrix(4.2, 0, 0, -4.2, 1723.97, 2813.97)" gradientUnits="userSpaceOnUse"><stop offset="0.13"/><stop offset="0.21" stop-opacity="0.68"/><stop offset="0.39" stop-opacity="0"/><stop offset="0.51" stop-opacity="0"/><stop offset="0.78"/></linearGradient><radialGradient id="Dégradé_sans_nom_6" cx="-390.79" cy="647.7" r="7.62" gradientTransform="matrix(4.2, 0, 0, -4.2, 1723.97, 2813.97)" gradientUnits="userSpaceOnUse"><stop offset="0.34" stop-opacity="0"/><stop offset="0.73"/></radialGradient><linearGradient id="Dégradé_sans_nom_7" x1="-383.22" y1="629" x2="-364.98" y2="638.08" gradientTransform="matrix(4.2, 0, 0, -4.2, 1783.01, 2812.52)" gradientUnits="userSpaceOnUse"><stop offset="0.13"/><stop offset="0.29" stop-opacity="0.68"/><stop offset="0.64" stop-opacity="0"/></linearGradient><linearGradient id="Dégradé_sans_nom_8" x1="-385.38" y1="627.26" x2="-397.7" y2="632.7" gradientTransform="matrix(4.2, 0, 0, -4.2, 1783.01, 2812.52)" gradientUnits="userSpaceOnUse"><stop offset="0.2"/><stop offset="0.4" stop-opacity="0.68"/><stop offset="0.83" stop-opacity="0"/></linearGradient><radialGradient id="Dégradé_sans_nom_9" cx="-382.2" cy="640.37" r="23.01" gradientTransform="matrix(4.2, 0, 0, -4.2, 1783.01, 2812.52)" gradientUnits="userSpaceOnUse"><stop offset="0.67" stop-opacity="0"/><stop offset="0.92"/></radialGradient><linearGradient id="Dégradé_sans_nom_10" x1="-399.36" y1="632.47" x2="-383.43" y2="651.78" gradientTransform="matrix(4.2, 0, 0, -4.2, 1783.01, 2812.52)" gradientUnits="userSpaceOnUse"><stop offset="0.02"/><stop offset="0.17" stop-opacity="0.68"/><stop offset="0.49" stop-opacity="0"/><stop offset="0.7" stop-opacity="0"/><stop offset="0.95"/></linearGradient><linearGradient id="Dégradé_sans_nom_11" x1="-399.45" y1="623.58" x2="-396.71" y2="635.3" gradientTransform="matrix(4.2, 0, 0, -4.2, 1783.01, 2812.52)" gradientUnits="userSpaceOnUse"><stop offset="0.03"/><stop offset="0.33" stop-opacity="0.68"/><stop offset="0.98" stop-opacity="0"/></linearGradient><linearGradient id="Dégradé_sans_nom_12" x1="-376.69" y1="654.72" x2="-394.04" y2="618.63" gradientTransform="matrix(4.2, 0, 0, -4.2, 1783.01, 2812.52)" gradientUnits="userSpaceOnUse"><stop offset="0.04"/><stop offset="0.12" stop-opacity="0.68"/><stop offset="0.29" stop-opacity="0"/><stop offset="0.71" stop-opacity="0"/><stop offset="0.97"/></linearGradient><linearGradient id="Dégradé_sans_nom_13" x1="-405.59" y1="610.29" x2="-387.22" y2="681.06" gradientTransform="matrix(4.2, 0, 0, -4.2, 1783.01, 2812.52)" gradientUnits="userSpaceOnUse"><stop offset="0.13"/><stop offset="0.22" stop-opacity="0.68"/><stop offset="0.4" stop-opacity="0"/><stop offset="0.68" stop-opacity="0"/><stop offset="0.95"/></linearGradient></defs><g id="Calque_2" data-name="Calque 2"><g id="svg40144"><g id="logo-group"><g id="logo-center"><g id="title"><g id="path40153"><path class="cls-1" d="M183.52,291.56c.42-17.95-9.24-33.74-24.51-43.24-14.08-8.76-30.62-12.33-47.86-15.48-6-1.09-12-2.07-18-3.26-18.43-4.33-45.28-13.19-52.8-21.64-12.18-13.7-9-27.6.49-36.48a27,27,0,0,0,2,13.65c4.56,6,11.67,10.89,20.27,14.54,11.18,4.74,24.67,7.62,36.29,9.35,25.62,4.88,47.12,9.77,61.8,16,16.64,7.09,27.45,13.7,31.7,25.3C199.08,267.1,194.77,283.63,183.52,291.56Z"/><path class="cls-1" d="M183.52,291.56c10.06-1.18,23.6-13.09,23.6-30.9,0-14.38-12.43-26-29.13-33.25-22.36-9.73-54.56-14.23-78.55-18.41,26.65,5.4,51.11,11.88,65.87,19.75,13.6,7.25,21.25,14.48,24.86,26.09C193.51,265.61,190.25,281.8,183.52,291.56Z"/><path class="cls-1" d="M40.9,189.81c-1-4.16-1.3-10.76-.06-18.35,1.77-10.82,5.83-26,12.07-43.64,3-8.44,6.45-18.67,10.25-29.46,2.63-7.48,5.33-14.71,7.85-21.82,3-8.43,5.81-16.06,7.86-22.39,2.3-7.08,3.65-12.5,3.63-15.11C82.42,26.6,68.35,19.77,55.23,19.66c-3.67,0-6.83.33-8.11,1.23.66,3.43-3.47,18.22-9.07,36-2.47,7.81-5.18,16.24-7.87,24.5-2.39,7.34-5,14.57-7.19,21.16-1.88,5.68-3.69,11.48-5.34,16.75C11.15,140,3.25,166,10.56,186.1c3.17,8.73,9.3,16.3,18.55,22.51A104,104,0,0,0,50.92,219.1c11.8,4.16,25.92,7.43,42.23,10.48C64.93,220.84,46,210.1,40.9,189.81Z"/><path class="cls-1" d="M75.24,84.7A17.44,17.44,0,0,0,83.45,88a14.9,14.9,0,0,0,4.76,0,17,17,0,0,0,4.94-1.69A14.49,14.49,0,0,0,99,80.9c.86-2.89.84-5.06-3.23-7.26S86.27,72,84.89,73.06A12.88,12.88,0,0,1,84,76.85C82.22,81.36,78.12,84.29,75.24,84.7Z"/><path class="cls-1" d="M2.05,56C-3.1,67.07,2,79.73,11,82,18,83.8,23,82.86,30.18,81.38c4.84-1,10.79-2.24,19.14-3.19A207.62,207.62,0,0,1,71,76.54c4.47,0,8.84,0,13,.31,8.47.17,14.9.45,14.93,4.05A16.77,16.77,0,0,0,90.18,56a45.33,45.33,0,0,0-11.31-1.87,154.35,154.35,0,0,0-27.46,1.23c-4.68.6-9.17,1.09-13.36,1.5C19.55,58.67,6.38,58.73,2.05,56Z"/><path class="cls-2" d="M183.52,291.56c10.06-1.18,23.6-13.09,23.6-30.9,0-14.38-12.43-26-29.13-33.25-22.36-9.73-54.56-14.23-78.55-18.41,26.65,5.4,51.11,11.88,65.87,19.75,13.6,7.25,21.25,14.48,24.86,26.09C193.51,265.61,190.25,281.8,183.52,291.56Z"/><path class="cls-3" d="M2.05,56C-3.1,67.07,2,79.73,11,82,18,83.8,23,82.86,30.18,81.38c4.84-1,10.79-2.24,19.14-3.19A207.62,207.62,0,0,1,71,76.54c4.47,0,8.84,0,13,.31,8.47.17,14.9.45,14.93,4.05A16.77,16.77,0,0,0,90.18,56a45.33,45.33,0,0,0-11.31-1.87,154.35,154.35,0,0,0-27.46,1.23c-4.68.6-9.17,1.09-13.36,1.5C19.55,58.67,6.38,58.73,2.05,56Z"/><path class="cls-4" d="M51.41,55.38a154.35,154.35,0,0,1,27.46-1.23c2.3-7.08,3.65-12.5,3.63-15.11C82.42,26.6,68.35,19.77,55.23,19.66c-3.67,0-6.83.33-8.11,1.23.66,3.43-3.47,18.22-9.07,36C42.24,56.47,46.73,56,51.41,55.38Z"/><path class="cls-5" d="M40.9,189.81c-1-4.16-1.3-10.76-.06-18.35,1.77-10.82,5.83-26,12.07-43.64,3-8.44,6.45-18.67,10.25-29.46,2.63-7.48,5.33-14.71,7.85-21.82a207.62,207.62,0,0,0-21.69,1.65c-8.35,1-14.3,2.19-19.14,3.19-2.39,7.34-5,14.57-7.19,21.16-1.88,5.68-3.69,11.48-5.34,16.75C11.15,140,3.25,166,10.56,186.1c3.17,8.73,9.3,16.3,18.55,22.51A104,104,0,0,0,50.92,219.1c11.8,4.16,25.92,7.43,42.23,10.48C64.93,220.84,46,210.1,40.9,189.81Z"/><path class="cls-6" d="M190.17,254.84c-3.61-11.61-11.26-18.84-24.86-26.09-14.76-7.87-39.22-14.35-65.87-19.75-11.62-1.73-25.11-4.61-36.29-9.35-8.6-3.65-15.71-8.51-20.27-14.54a27,27,0,0,1-2-13.65c-1.24,7.59-1,14.19.06,18.35,5.06,20.29,24,31,52.25,39.77,6,1.19,12,2.17,18,3.26,17.24,3.15,33.78,6.73,47.86,15.48,15.27,9.5,24.93,25.29,24.51,43.24C190.25,281.8,193.51,265.61,190.17,254.84Z"/><path class="cls-7" d="M84,76.85c-1.8,4.51-5.9,7.44-8.78,7.85A17.44,17.44,0,0,0,83.45,88a14.9,14.9,0,0,0,4.76,0,17,17,0,0,0,4.94-1.69A14.49,14.49,0,0,0,99,80.9C98.92,77.3,92.49,77,84,76.85Z"/></g><g id="path40155"><path class="cls-1" d="M104.59,199.3c1.16-4.47,2.76-10,3.93-13.29a236.86,236.86,0,0,1,12.71-32.7,205.26,205.26,0,0,1,16.54-28.25,183.19,183.19,0,0,1,14.45-18.59c6.86-7.46,14.68-13.63,21.32-13.32,5.53-2.89.7-13.4-3.18-15.21-4.54-2.12-9.55-.32-17.53,4.57a71.34,71.34,0,0,0-11,10.63c-5.94,7.43-8,10.6-15.25,21.91a191.14,191.14,0,0,0-18.35,46C104.27,176.75,101.44,195.22,104.59,199.3Z"/><path class="cls-1" d="M159.33,23.67c.43-7.38-2.13-13.77-6.88-18A23.16,23.16,0,0,0,136.73,0c-3.67,0-6.67.31-7.95,1.21,1.46,6.18-15.36,52.87-30.9,97.59C87.39,129,82.47,154.47,82.8,170.28c.36,17.13,6,30.54,16.88,30.54a7.64,7.64,0,0,0,4.91-1.52c-2.77-10.51,18.24-73.86,22.07-84.24C143.17,70.35,158.42,39.05,159.33,23.67Z"/><path class="cls-1" d="M229.49,125.85c-.89,1.64-7.62,14.29-16.94,19.05a40.37,40.37,0,0,1-13,3.59c-7.66,1-16.23.82-24.32.79-4.93,0-9.89-.39-15-.48-14.1-.26-28.55-.34-39,4.51a27.4,27.4,0,0,0-5.22,3.26c-6.71,5.17-9.7,13-9.7,18.27s2.65,9.44,5.26,11.11c3.39,2.16,12.65.87,13.16-1.87a15.16,15.16,0,0,1-2,.1c-2.22-.17-3.51-.81-4-1.77-1-2,.26-4.27,2.16-6.09,3.72-3.56,11.47-6.08,16.57-7a96.67,96.67,0,0,1,10.32-.87c7.64-.17,15.16.66,22.39,1.05,5.69.31,11.7.55,17.82.47,16.22-.2,33-2.82,45-13.83,3.22-3,7.32-7.73,9.17-11.53C243.9,138.31,234,127.22,229.49,125.85Z"/><path class="cls-1" d="M177.77,73.8c-8.2,0-16.77,2.59-25,8.74,7.24-4.43,13.48-4,15.64-1.81,2.93,3,4.41,7.29,5.06,12.42.77,9-.72,19.28-3.37,29-2.49,9.13-7.72,21.74-10,26.64a90.77,90.77,0,0,1-12.33,19.62c-6.53,8.12-14.44,14.59-23.11,15.63-7.54.92-15.23-1-18.39-8.26A24.94,24.94,0,0,0,108.52,186c4.73,9.53,15.25,14.81,28.33,14.81,20.06,0,38.34-12.56,51.2-30.85a103.67,103.67,0,0,0,11.5-21.48,106,106,0,0,0,7.5-39.08C206.93,82.59,190.24,73.8,177.77,73.8Z"/><path class="cls-8" d="M229.49,125.85c-.89,1.64-7.62,14.29-16.94,19.05a40.37,40.37,0,0,1-13,3.59A103.67,103.67,0,0,1,188.05,170c16.22-.2,33-2.82,45-13.83,3.22-3,7.32-7.73,9.17-11.53C243.9,138.31,234,127.22,229.49,125.85Z"/><path class="cls-9" d="M124.73,184.08a15.16,15.16,0,0,1-2,.1c-2.22-.17-3.51-.81-4-1.77-1-2,.26-4.27,2.16-6.09,3.72-3.56,11.47-6.08,16.57-7a96.67,96.67,0,0,1,10.32-.87,90.77,90.77,0,0,0,12.33-19.62v0c-14.08-.26-28.52-.33-38.95,4.51a27.4,27.4,0,0,0-5.22,3.26c-6.71,5.17-9.7,13-9.7,18.27,0,.36,0,.64,0,1a13.49,13.49,0,0,0,2.41,3.75,13.23,13.23,0,0,0,4,2.94,18.47,18.47,0,0,0,6.87,1.73A27,27,0,0,0,124.73,184.08Z"/><path class="cls-10" d="M124.73,184.08a15.16,15.16,0,0,1-2,.1c-2.22-.17-3.51-.81-4-1.77-1-2,.26-4.27,2.16-6.09,3.72-3.56,11.47-6.08,16.57-7a96.67,96.67,0,0,1,10.32-.87,90.77,90.77,0,0,0,12.33-19.62v0c-14.08-.26-28.52-.33-38.95,4.51a27.4,27.4,0,0,0-5.22,3.26c-6.71,5.17-9.7,13-9.7,18.27,0,.36,0,.64,0,1a13.49,13.49,0,0,0,2.41,3.75,13.19,13.19,0,0,0,4,2.94,18.66,18.66,0,0,0,6.85,1.73A27.2,27.2,0,0,0,124.73,184.08Z"/><path class="cls-11" d="M168.43,80.73c-1-1-2.79-1.64-5.15-1.62a20.87,20.87,0,0,0-10.35,3.34l-.1.06a71.34,71.34,0,0,0-11,10.63c-5.92,7.39-8,10.59-15.16,21.77l-.06.15c-2,5.48-8.81,25.62-14.38,45.05a24.7,24.7,0,0,1,3.73-3.54,27.4,27.4,0,0,1,5.22-3.26,205.26,205.26,0,0,1,16.54-28.25,183.19,183.19,0,0,1,14.45-18.59,64.26,64.26,0,0,1,10.44-9.36,25.6,25.6,0,0,1,6-3.16,14.21,14.21,0,0,1,3.72-.79c.56,0,.94,0,1.11,0C172.84,88,171.36,83.75,168.43,80.73Z"/><path class="cls-12" d="M104.59,199.3c1.16-4.47,2.76-10,3.93-13.29a22.84,22.84,0,0,1-1.67-5.17c-.27,1.21-.56,2.36-1.14,5.31S103.79,196.29,104.59,199.3Z"/><path class="cls-13" d="M177.77,73.8c-8.2,0-16.77,2.59-25,8.73,7.24-4.42,13.47-4,15.63-1.8,2.93,3,4.41,7.29,5.06,12.42.77,9-.72,19.28-3.37,29-2.49,9.13-7.72,21.74-10,26.64a90.77,90.77,0,0,1-12.33,19.62c-6.53,8.13-14.44,14.59-23.11,15.63-7.54.92-15.23-1-18.39-8.26A24.94,24.94,0,0,0,108.52,186c4.73,9.53,15.25,14.81,28.33,14.81,20.06,0,38.34-12.55,51.2-30.85a103.67,103.67,0,0,0,11.5-21.48,106,106,0,0,0,7.5-39.08C206.93,82.59,190.24,73.8,177.77,73.8Z"/><path class="cls-14" d="M106.85,180.82a27.2,27.2,0,0,1-.5-4.82c0,.42,0-1.09,0-1.66a21.09,21.09,0,0,1,2-8,27.27,27.27,0,0,1,3.93-6.19c1-3.29,1.86-6.39,2.85-9.65,4.83-16,9.85-30.85,11.53-35.4,16.51-44.71,31.76-76,32.67-91.39.43-7.38-2.13-13.77-6.88-18A23.16,23.16,0,0,0,136.73,0c-3.67,0-6.67.31-7.95,1.21,1.46,6.18-15.36,52.87-30.9,97.59C87.39,129,82.47,154.47,82.8,170.28c.36,17.13,6,30.54,16.88,30.54a7.7,7.7,0,0,0,4.91-1.52C103.57,195.45,106,184.71,106.85,180.82Z"/></g></g></g></g></g></g></svg>