<svg xmlns:dc="http://purl.org/dc/elements/1.1/" xmlns:cc="http://creativecommons.org/ns#" xmlns:rdf="http://www.w3.org/1999/02/22-rdf-syntax-ns#" xmlns:svg="http://www.w3.org/2000/svg" xmlns="http://www.w3.org/2000/svg" xmlns:xlink="http://www.w3.org/1999/xlink" id="svg18337" viewBox="0 0 1024 768" height="768px" width="1024px" version="1.1">
  <metadata id="metadata18343">
    <rdf:rdf>
      <cc:work rdf:about="">
        <dc:format>image/svg+xml</dc:format>
        <dc:type rdf:resource="http://purl.org/dc/dcmitype/StillImage"></dc:type>
      </cc:work>
    </rdf:rdf>
  </metadata>
  <defs id="defs18341"></defs>
  <linearGradient spreadMethod="pad" y2="30%" x2="-10%" y1="120%" x1="30%" id="3d_gradient2-logo-f3f80a28-090b-4d09-b57c-65cabf36a637">
    <stop id="stop18318" stop-opacity="1" stop-color="#ffffff" offset="0%"></stop>
    <stop id="stop18320" stop-opacity="1" stop-color="#000000" offset="100%"></stop>
  </linearGradient>
  <linearGradient gradientTransform="rotate(-30)" spreadMethod="pad" y2="30%" x2="-10%" y1="120%" x1="30%" id="3d_gradient3-logo-f3f80a28-090b-4d09-b57c-65cabf36a637">
    <stop id="stop18323" stop-opacity="1" stop-color="#ffffff" offset="0%"></stop>
    <stop id="stop18325" stop-opacity="1" stop-color="#cccccc" offset="50%"></stop>
    <stop id="stop18327" stop-opacity="1" stop-color="#000000" offset="100%"></stop>
  </linearGradient>
  <g id="logo-group">
    <image xlink:href="" id="container" x="272" y="144" width="480" height="480" style="display: none;" transform="translate(0 0)"></image>
    <g id="logo-center" transform="translate(-334.23769500000003 0)">
      <image xlink:href="" id="icon_container" style="display: none;" x="0" y="0"></image>
      <g id="slogan" style="font-style:oblique;font-weight:100;font-size:32px;line-height:1;font-family:Overpass;font-variant-ligatures:none;text-align:center;text-anchor:middle" transform="translate(0 0)"></g>
      <g id="title" style="font-style:normal;font-weight:400;font-size:72px;line-height:1;font-family:'Brandmark Dots 1 Color';font-variant-ligatures:normal;text-align:center;text-anchor:middle" transform="translate(0 0)">
        <g id="path18346" aria-label="T" transform="translate(0 359.2) translate(718.4753900000001 -50.79999999999999) scale(3) translate(-467.44719 50.4)"> <path class="c1" d="M104.75244,120.44112c0,2.59277-2.08789,4.75293-4.75293,4.75293 c-2.66406,0-4.75195-2.16016-4.75195-4.75293v-36.0752H84.80615c-2.5918,0-4.75195-2.16016-4.75195-4.82422 c0-2.5918,2.16016-4.75195,4.75195-4.75195h15.19336c2.88086,0,4.75293,2.16016,4.75293,4.75195V120.44112z" transform="translate(387.39299 -125.18975)" stroke-width="0" stroke-linejoin="miter" stroke-miterlimit="2" fill="#050676" stroke="#050676"></path> <path class="c3" d="M119.9458,79.5417c0,2.66406-2.16016,4.82422-4.75293,4.82422c-2.66406,0-4.82422-2.16016-4.82422-4.82422 c0-2.5918,2.16016-4.75195,4.82422-4.75195C117.78564,74.78975,119.9458,76.94991,119.9458,79.5417z" transform="translate(387.39299 -125.18975)" stroke-width="0" stroke-linejoin="miter" stroke-miterlimit="2" fill="#8c8cff" stroke="#8c8cff"></path> </g>
        <path id="path18348" style="font-style:normal;font-weight:400;font-size:72px;line-height:1;font-family:'Brandmark Dots 1 Color';font-variant-ligatures:normal;text-align:center;text-anchor:middle" d="M 524.11006,-4.752 V -21.6 h 10.44 c 4.536,0 8.496,2.376 8.496,6.048 0,2.232 -0.792,3.6 -1.08,4.896 -0.576,2.232 0,4.032 2.16,5.184 2.304,1.224 5.184,0.504 6.48,-1.8 1.368,-2.376 2.016,-5.04 2.016,-8.352 0,-5.184 -3.312,-9.864 -7.416,-11.808 2.16,-1.728 4.392,-5.976 4.392,-10.44 0,-6.84 -5.328,-12.528 -15.336,-12.528 h -14.904 -0.072 c -2.592,0 -4.752,2.16 -4.752,4.752 v 40.896 c 0,2.664 2.16,4.752 4.752,4.752 2.664,0 4.824,-2.088 4.824,-4.752 z m 0,-37.224 h 9.432 c 4.968,0 7.2,2.88 7.2,5.976 0,3.6 -3.096,5.904 -7.2,5.904 h -9.432 z m 14.256,37.224 c 0,-2.664 -2.088,-4.824 -4.752,-4.824 -2.664,0 -4.752,2.16 -4.752,4.824 0,2.592 2.088,4.752 4.752,4.752 2.664,0 4.752,-2.16 4.752,-4.752 z" stroke-width="0" stroke-linejoin="miter" stroke-miterlimit="2" fill="#4949bb" stroke="#4949bb" transform="translate(0 359.2) translate(859.7360000000001 -50.79999999999999) scale(3) translate(-514.53406 50.4)"></path>
       </g>
      <image id="icon" style="display: none;" x="0" y="0"></image>
    </g>
  </g>
</svg>