<?xml version="1.0" encoding="UTF-8" standalone="no"?><!-- Generator: Gravit.io --><svg xmlns="http://www.w3.org/2000/svg" xmlns:xlink="http://www.w3.org/1999/xlink" style="isolation:isolate" viewBox="0 0 260 153" width="260pt" height="153pt"><defs><clipPath id="_clipPath_eKOCAw8EQt5rmB1ZB1vQPCAMkeesedZC"><rect width="260" height="153"/></clipPath></defs><g clip-path="url(#_clipPath_eKOCAw8EQt5rmB1ZB1vQPCAMkeesedZC)"><clipPath id="_clipPath_13wCn3IbWGSh3RAmXnHnQSWmdjSVzJnl"><rect x="0" y="0" width="260" height="153" transform="matrix(1,0,0,1,0,0)" fill="rgb(255,255,255)"/></clipPath><g clip-path="url(#_clipPath_13wCn3IbWGSh3RAmXnHnQSWmdjSVzJnl)"><g><g><g><g><path d=" M 76.332 137.848 C 76.332 145.626 70.069 152.106 62.074 152.106 C 54.081 152.106 47.818 145.626 47.818 137.848 L 47.818 29.622 L 16.494 29.622 C 8.718 29.622 2.238 23.142 2.238 15.149 C 2.238 7.374 8.718 0.894 16.494 0.894 L 62.074 0.894 C 70.716 0.894 76.332 7.374 76.332 15.149 L 76.332 137.848 L 76.332 137.848 Z " fill="rgb(255,255,255)"/><path d=" M 121.912 15.149 C 121.912 23.142 115.432 29.622 107.654 29.622 C 99.662 29.622 93.181 23.142 93.181 15.149 C 93.181 7.374 99.662 0.894 107.654 0.894 C 115.432 0.894 121.912 7.374 121.912 15.149 Z " fill="rgb(255,255,255)"/><path d=" M 172.226 137.838 L 172.226 87.294 L 203.546 87.294 C 217.154 87.294 229.034 94.422 229.034 105.438 C 229.034 112.134 226.658 116.238 225.794 120.126 C 224.066 126.822 225.794 132.222 232.274 135.678 C 239.186 139.35 247.826 137.19 251.714 130.278 C 255.818 123.15 257.762 115.158 257.762 105.222 C 257.762 89.67 247.826 75.63 235.514 69.798 C 241.994 64.614 248.69 51.87 248.69 38.478 C 248.69 17.958 232.706 0.894 202.682 0.894 L 157.97 0.894 L 157.754 0.894 C 149.978 0.894 143.498 7.374 143.498 15.15 L 143.498 137.838 C 143.498 145.83 149.978 152.094 157.754 152.094 C 165.746 152.094 172.226 145.83 172.226 137.838 L 172.226 137.838 L 172.226 137.838 Z  M 172.226 26.166 L 200.522 26.166 C 215.426 26.166 222.122 34.806 222.122 44.094 C 222.122 54.894 212.834 61.806 200.522 61.806 L 172.226 61.806 L 172.226 26.166 L 172.226 26.166 Z  M 214.994 137.838 C 214.994 129.846 208.73 123.366 200.738 123.366 C 192.746 123.366 186.482 129.846 186.482 137.838 C 186.482 145.614 192.746 152.094 200.738 152.094 C 208.73 152.094 214.994 145.614 214.994 137.838 Z " fill="rgb(255,255,255)"/></g></g></g></g></g></g></svg>