<?xml version="1.0" standalone="no"?>
<!DOCTYPE svg PUBLIC "-//W3C//DTD SVG 20010904//EN"
 "http://www.w3.org/TR/2001/REC-SVG-20010904/DTD/svg10.dtd">
<svg version="1.0" xmlns="http://www.w3.org/2000/svg"
 width="550.000000pt" height="537.000000pt" viewBox="0 0 550.000000 537.000000"
 preserveAspectRatio="xMidYMid meet">

<g transform="translate(0.000000,537.000000) scale(0.100000,-0.100000)"
fill="#000000" stroke="none">
<path d="M2626 5354 c-14 -14 -16 -114 -16 -958 l0 -942 -44 -12 c-97 -26
-182 -129 -193 -235 -17 -163 113 -304 277 -301 76 2 125 21 181 71 80 73 109
187 74 294 -22 66 -92 139 -158 164 l-47 18 0 948 c0 927 0 949 -19 959 -27
14 -37 13 -55 -6z m103 -2008 c42 -22 89 -81 97 -121 21 -111 -43 -206 -153
-230 -99 -20 -213 77 -213 182 0 43 28 110 56 135 54 48 155 64 213 34z"/>
<path d="M1908 5039 c-17 -9 -18 -45 -18 -520 l0 -511 -117 -239 -116 -239
-197 0 -197 0 -11 38 c-15 50 -72 115 -130 150 -41 23 -58 27 -127 27 -92 0
-137 -19 -196 -82 -51 -53 -71 -97 -77 -169 -9 -117 48 -218 153 -269 48 -24
64 -27 133 -24 66 3 86 9 128 34 54 34 108 105 124 166 l11 39 218 0 c163 0
221 3 228 13 5 6 66 130 136 273 l127 262 0 515 c0 455 -2 517 -16 531 -18 18
-32 20 -56 5z m-815 -1409 c96 -66 114 -193 39 -282 -34 -40 -78 -58 -142 -58
-115 0 -193 93 -177 211 17 129 174 202 280 129z"/>
<path d="M3357 5032 c-15 -17 -17 -68 -17 -529 l0 -510 130 -266 c72 -146 137
-270 144 -276 8 -7 92 -12 221 -13 l209 -3 8 -38 c29 -138 167 -240 302 -222
234 31 331 322 158 477 -59 53 -105 71 -187 72 -51 0 -82 -5 -115 -20 -55 -26
-114 -84 -137 -136 l-17 -38 -195 1 -196 0 -118 242 -118 242 1 507 c0 492 -1
508 -19 518 -27 14 -35 13 -54 -8z m1038 -1411 c151 -68 153 -261 4 -339 -117
-61 -259 30 -259 167 0 139 132 228 255 172z"/>
<path d="M2226 4474 c-14 -14 -16 -72 -16 -489 l0 -474 -145 -249 -145 -250
-74 1 c-85 0 -146 -24 -203 -81 -105 -104 -104 -283 2 -385 138 -134 359 -95
441 78 47 100 26 226 -52 306 l-36 37 151 260 151 261 0 484 c0 456 -1 485
-18 500 -23 21 -36 21 -56 1z m-341 -1555 c87 -24 135 -88 135 -180 0 -177
-227 -250 -330 -107 -87 119 -7 282 145 297 6 0 28 -4 50 -10z"/>
<path d="M3037 4472 c-15 -17 -17 -66 -17 -501 l0 -483 150 -253 c83 -140 150
-257 150 -260 0 -4 -16 -25 -35 -48 -115 -135 -70 -344 92 -423 132 -65 283
-17 361 116 24 39 27 56 27 130 0 100 -18 143 -87 207 -58 52 -128 76 -215 71
l-65 -3 -144 245 -144 244 0 478 c0 462 -1 478 -19 488 -27 14 -35 13 -54 -8z
m541 -1553 c55 -27 93 -84 100 -148 6 -66 -12 -113 -58 -155 -88 -80 -202 -67
-276 30 -25 33 -29 46 -29 104 0 55 4 73 27 107 51 77 150 103 236 62z"/>
<path d="M633 4279 c-131 -17 -247 -103 -306 -226 l-32 -68 -5 -1280 -5 -1280
-116 -385 c-64 -212 -128 -407 -143 -434 -23 -44 -26 -60 -26 -156 0 -151 16
-198 93 -275 44 -44 80 -69 122 -86 l60 -24 2475 0 2475 0 60 24 c42 17 78 42
122 86 81 82 96 130 92 294 -4 106 -7 121 -30 157 -14 21 -92 206 -173 409
-81 204 -159 393 -172 421 l-24 50 -2 1230 -3 1229 -31 66 c-53 111 -131 183
-249 230 l-60 23 -585 3 c-622 4 -631 3 -638 -43 -7 -49 -10 -49 637 -54 l606
-5 46 -23 c59 -29 124 -94 158 -157 l26 -50 3 -1232 2 -1233 -2315 0 -2315 0
0 1225 c0 1201 0 1225 20 1278 28 74 79 130 152 166 l61 31 571 0 c614 0 621
1 621 50 0 49 -10 50 -580 49 -291 -1 -558 -5 -592 -10z m4554 -3214 c73 -181
136 -340 139 -353 l6 -22 -989 0 c-756 0 -992 -3 -1001 -12 -7 -7 -12 -43 -12
-93 0 -50 -5 -86 -12 -93 -17 -17 -1119 -17 -1136 0 -7 7 -12 43 -12 93 0 50
-5 86 -12 93 -9 9 -246 12 -1006 12 -942 0 -994 1 -990 18 3 9 49 169 104 354
l99 338 2344 -3 2344 -2 134 -330z m-3107 -522 c0 -40 6 -68 20 -90 39 -65 20
-63 653 -63 l574 0 34 23 c45 30 59 60 59 130 l0 57 980 0 980 0 16 -25 c13
-19 15 -47 12 -143 -3 -111 -5 -121 -31 -160 -33 -47 -85 -84 -151 -106 -42
-14 -278 -16 -2476 -16 -2198 0 -2434 2 -2476 16 -66 22 -118 59 -151 106 -26
39 -28 49 -31 159 -4 115 -3 119 22 144 l25 25 971 0 970 0 0 -57z"/>
</g>
</svg>
