<?xml version="1.0" encoding="utf-8"?>
<!-- Generator: Adobe Illustrator 25.2.1, SVG Export Plug-In . SVG Version: 6.00 Build 0)  -->
<svg version="1.1" id="Calque_1" xmlns="http://www.w3.org/2000/svg" xmlns:xlink="http://www.w3.org/1999/xlink" x="0px" y="0px"
	 viewBox="0 0 1440 153" style="enable-background:new 0 0 1440 153;" xml:space="preserve">
<style type="text/css">
	.st0{fill:#3342E8;}
</style>
<path class="st0" d="M0,7l48,5.3C96,18,192,28,288,44.3C384,60,480,82,576,97.7c96,16.3,192,26.3,288,26.6c96-0.3,192-10.3,288-32
	C1248,71,1344,39,1392,23l48-16v146h-48c-48,0-144,0-240,0s-192,0-288,0s-192,0-288,0s-192,0-288,0s-192,0-240,0H0V7z"/>
</svg>
