<?xml version="1.0" encoding="utf-8"?>
<!-- Generator: Adobe Illustrator 25.2.1, SVG Export Plug-In . SVG Version: 6.00 Build 0)  -->
<svg version="1.1" id="Calque_1" xmlns="http://www.w3.org/2000/svg" xmlns:xlink="http://www.w3.org/1999/xlink" x="0px" y="0px"
	 viewBox="0 0 1440 193" style="enable-background:new 0 0 1440 193;" xml:space="preserve">
<style type="text/css">
	.st0{fill:#3342E8;}
</style>
<path class="st0" d="M0,91l48-16c48-16,144-48,240-37.3c96,10.3,192,64.3,288,64C672,102,768,48,864,59s192,85,288,90.7
	c96,5.3,192-58.7,240-90.7l48-32v166h-48c-48,0-144,0-240,0s-192,0-288,0s-192,0-288,0s-192,0-288,0s-192,0-240,0H0V91z"/>
</svg>
